inDegrees=no
num_controls=7
num_derivatives=13
num_iterations=119
num_multipliers=7
num_parameters=0
num_slacks=7
num_states=26
objective=0.448395
objective_accelerations=0.049557
objective_balance=0.007536
objective_effort=0.036667
objective_height=0.349696
objective_ligament=0.004939
solver_duration=1744.129852
status=Solve_Succeeded
success=true
DataType=double
version=3
OpenSimVersion=4.5
endheader
time	/jointset/ground_pelvis/pelvis_tilt/value	/jointset/ground_pelvis/pelvis_tx/value	/jointset/ground_pelvis/pelvis_ty/value	/jointset/hip_l/hip_flexion_l/value	/jointset/hip_l/hip_adduction_l/value	/jointset/hip_l/hip_rotation_l/value	/jointset/back/lumbar_extension/value	/jointset/patellofemoral_l/patellar_flexion_l/value	/jointset/knee_l/knee_flexion_l/value	/jointset/knee_l/knee_adduction_l/value	/jointset/knee_l/knee_rotation_l/value	/jointset/ankle_l/ankle_angle_l/value	/jointset/subtalar_l/subtalar_angle_l/value	/jointset/ground_pelvis/pelvis_tilt/speed	/jointset/ground_pelvis/pelvis_tx/speed	/jointset/ground_pelvis/pelvis_ty/speed	/jointset/hip_l/hip_flexion_l/speed	/jointset/hip_l/hip_adduction_l/speed	/jointset/hip_l/hip_rotation_l/speed	/jointset/back/lumbar_extension/speed	/jointset/patellofemoral_l/patellar_flexion_l/speed	/jointset/knee_l/knee_flexion_l/speed	/jointset/knee_l/knee_adduction_l/speed	/jointset/knee_l/knee_rotation_l/speed	/jointset/ankle_l/ankle_angle_l/speed	/jointset/subtalar_l/subtalar_angle_l/speed	/forceset/tau_hip_flexion_l	/forceset/tau_hip_adduction_l	/forceset/tau_hip_rotation_l	/forceset/tau_knee_flexion_l	/forceset/tau_ankle_angle_l	/forceset/tau_subtalar_angle_l	/forceset/tau_lumbar_extension	lambda_cid13_p0	lambda_cid13_p1	lambda_cid13_p2	lambda_cid13_p3	lambda_cid13_p4	lambda_cid13_p5	lambda_cid14_p0	/jointset/ground_pelvis/pelvis_tilt/accel	/jointset/ground_pelvis/pelvis_tx/accel	/jointset/ground_pelvis/pelvis_ty/accel	/jointset/hip_l/hip_flexion_l/accel	/jointset/hip_l/hip_adduction_l/accel	/jointset/hip_l/hip_rotation_l/accel	/jointset/back/lumbar_extension/accel	/jointset/patellofemoral_l/patellar_flexion_l/accel	/jointset/knee_l/knee_flexion_l/accel	/jointset/knee_l/knee_adduction_l/accel	/jointset/knee_l/knee_rotation_l/accel	/jointset/ankle_l/ankle_angle_l/accel	/jointset/subtalar_l/subtalar_angle_l/accel	gamma_cid13_p0	gamma_cid13_p1	gamma_cid13_p2	gamma_cid13_p3	gamma_cid13_p4	gamma_cid13_p5	gamma_cid14_p0
1	-0.6577098905580305	-0.1308868565014451	0.5944480256311795	1.960630536172827	-0.2954678364000675	0.1378341747561834	-0.4363091601084414	1.202717621267905	1.202717621269678	-0.1744984168636585	0.1745213503872472	0.09529738862657516	-0.02821594892804395	-0.01191463213415586	0.0004666106144196753	-0.003989525892303174	0.01973750162620435	0.0008644261273580464	0.003801937452632031	0.0005601625322994199	0.009972718252375556	0.009972718252375539	2.570383217805744e-05	-2.983937776662577e-05	0.002845776270061392	0.001416490302392536	-0.4419543203630219	0.001252162168959035	-0.01802113890111788	-0.2518730180401001	0.1392731822334064	0.02904193751968347	0.3548775493231841	-1.712387285651207	-12.25023117201942	1.478806607092467	7.768405633572844	-729.1797381471532	-45.06838116819147	-0.7538017744927281	1.854699578417218	0.2632241746779497	1.707486373226317	-6.323312011639425	-0.3851724498721198	-1.72954141833522	-0.04022693581477948	-4.685039061616553	-4.685039061616573	-0.04761533162179159	0.01467225537812318	-0.4949263604027883	-0.4649110084902175	1.26295919451418e-09	3.179218998774638e-09	-6.014377572609924e-09	-1.25991071286222e-09	1.666058169914317e-09	-2.828702456229077e-09	1.368913357338407e-09
1.01	-0.6577370319802144	-0.130869084354732	0.5944933864825916	1.960512699776993	-0.2954775756157125	0.1377847714052924	-0.4363047391058497	1.202583331603637	1.202583331605312	-0.1744983620589649	0.1745211389450816	0.0953013007598042	-0.02822403341990086	0.006483344455383356	0.003089055221647828	0.01305896479366858	-0.04329697833905479	-0.002809806320888071	-0.01368238169858481	0.0003292351125711056	-0.03682753381908538	-0.03682753381908494	-1.254718091536192e-05	-1.217939613744606e-05	-0.002065007395556553	-0.003030993767571267	-0.4418562510827773	0.001286332749884104	-0.01803036211344732	-0.251827144105092	0.1392947121797986	0.02906257701299988	0.3548209047061405	-1.69639226172989	-12.263491040886	1.482628788810172	7.721733585821165	-729.066286606502	-45.08895021714371	-0.7561858971878616	1.831895906984609	0.261940555646479	1.703119740111935	-6.292346039200469	-0.3581813819713325	-1.757847086171867	-0.01374607647778658	-4.677049766925533	-4.677049766925456	0.01839766406440118	-0.004651706792740398	-0.4894027704570094	-0.4343094793195576	-2.745673687813858e-09	-5.187451205859673e-09	2.045529219579153e-08	2.352914204926864e-09	-4.779948904343258e-09	1.874383034125791e-08	-4.5400940143483e-09
1.02	-0.6575802837949506	-0.1308250505715663	0.5947091501056294	1.959764752571461	-0.2955239837037738	0.1375605308783568	-0.4363024714637312	1.201981133121252	1.201981133122828	-0.1744986242343586	0.1745211111874598	0.09525605537621391	-0.02827652122707143	0.02486328935541627	0.005718937904934694	0.03009102843281653	-0.1062846603135652	-0.006469348355953277	-0.03116549775607951	0.0001294904358054577	-0.08360904537113366	-0.08360904537113321	-3.76921853082508e-05	6.897531569352929e-06	-0.006985727093803349	-0.007464172760339066	-0.4417581818025282	0.001320503330809521	-0.01803958532577556	-0.2517812701700853	0.1393162421261896	0.02908321650631644	0.3547642600891018	-1.68644986833836	-12.27561180763314	1.486178856716385	7.694786333881005	-729.0333293034439	-45.07646637904204	-0.7668751992608572	1.851093240515957	0.2647117898896935	1.704200963861556	-6.313952413489677	-0.3822343672359377	-1.72930079959079	-0.03399038722234085	-4.681290957734022	-4.681290957734131	-0.04499412988168634	0.01495564459364691	-0.496913566928557	-0.4620499930510162	-6.290729511154382e-09	-1.312543738050468e-08	4.771494230968009e-08	4.897459580941268e-09	-1.093119980538945e-08	4.127742444635011e-08	-1.056742314607226e-08
1.03	-0.6572396824777529	-0.1307546494953375	0.595095116769329	1.958387107532149	-0.2956068745904747	0.1371615305977258	-0.4363021278089627	1.20091126705708	1.200911267058931	-0.1744991091077925	0.1745212834538578	0.09516151577540545	-0.02837323195528579	0.04326830097249705	0.008365617930905424	0.04709606660523302	-0.1692420703479269	-0.01010180953097198	-0.04862950594970147	-6.374214442571145e-05	-0.1303556023152929	-0.1303556023152942	-5.829392790020207e-05	2.801708791492646e-05	-0.01192734467364241	-0.01187110024831132	-0.4414464674017727	0.001433162229254988	-0.01807159102668818	-0.2516216858904452	0.1393140589757663	0.02919167587143663	0.3545963068725105	-1.667529041842177	-12.331110497464	1.50083155297541	7.633752110629636	-728.7847740450807	-45.13195231570474	-0.7860990427447863	1.836902988808941	0.2652986990420489	1.69771613550081	-6.286295282426504	-0.3527073186902943	-1.754206825407643	-0.01243709303612839	-4.67004993484974	-4.670049934849912	0.01954890390229449	-0.004258953351193027	-0.4935576293981849	-0.4289888068662909	-9.831054956341968e-09	-2.105904922831305e-08	7.498265344750219e-08	7.431104145304904e-09	-1.707944299038246e-08	6.382082529947911e-08	-1.659595964269457e-08
1.04	-0.6567146914710844	-0.1306576511008308	0.5956509459930667	1.956379956395689	-0.2957258811541368	0.1365880390359253	-0.4363038059599106	1.199374193049048	1.199374193051173	-0.1744997715785829	0.174521677102915	0.09501740564362122	-0.02851380689441907	0.06174122724977067	0.01103840156053822	0.0640635404404168	-0.2321858797429706	-0.01369248374820889	-0.06606375398971313	-0.0002748707091607226	-0.1770506341431672	-0.1770506341431697	-7.321165648265699e-05	5.117406401205151e-05	-0.01689983328894612	-0.01623701494412217	-0.4411347530010148	0.00154582112770016	-0.018103596727597	-0.2514621016108064	0.1393118758253419	0.02930013523655629	0.3544283536559218	-1.654684313952766	-12.38550375446407	1.515260653017344	7.592255979261317	-728.6170304941526	-45.1549164837918	-0.8141564401364106	1.864676172554519	0.2699325106221078	1.696688096415014	-6.311232285626089	-0.3738769756795729	-1.723348768868726	-0.03756958412315807	-4.670985934477015	-4.670985934477043	-0.04385732707978388	0.01536312854395082	-0.503087774021485	-0.4538474346187287	-1.325358102048281e-08	-2.882411964494767e-08	1.00811213939723e-07	9.768904436015908e-09	-2.29755708179089e-08	8.478266971037212e-08	-2.243046978736874e-08
1.05	-0.6560046328369203	-0.1305337598214362	0.59637620531363	1.953743541174017	-0.2958805456918893	0.1358404455877587	-0.4363075907312946	1.197370502519501	1.197370502519598	-0.1745006081327915	0.1745223094471629	0.09482338828551895	-0.02869779653772331	0.08028170398114576	0.01374762645425273	0.08097646101807263	-0.2950844364686608	-0.01722812413001468	-0.08344399058260124	-0.0004756210864580415	-0.2236710681579665	-0.2236710681579665	-9.361386827015872e-05	7.502170204431712e-05	-0.02191101601829472	-0.0205485506723602	-0.4405636139540892	0.001722672847168267	-0.0181596825763517	-0.2512291707421883	0.1393979298619883	0.02947507052646261	0.3541312919661009	-1.595251808973004	-12.48065254472453	1.540445309258823	7.467637159187636	-728.2131522124791	-45.24061399881996	-0.8515748351034682	1.850412067523567	0.272585742802311	1.686808808075805	-6.277260833270791	-0.3415765513719692	-1.743742779230363	-0.01035839260426682	-4.655105883072554	-4.655105883072118	0.01893069245640222	-0.004176154577719157	-0.5012385781343122	-0.417961425512888	-1.667242585396594e-08	-3.65839231418581e-08	1.265948009742688e-07	1.210058459317527e-08	-2.886382004051452e-08	1.056950904824453e-07	-2.825891660854453e-08
1.06	-0.6551088337066245	-0.1303825426402932	0.597270236793897	1.950478521691643	-0.2960702004298477	0.1349193734387157	-0.4363131891320459	1.194901100900187	1.194901100898255	-0.1745016362369817	0.1745231659205864	0.09457903808897458	-0.02892453249502724	0.09888932647630458	0.01650358191022602	0.09781797238112933	-0.3579067318835611	-0.02069052378945587	-0.1007594941647497	-0.0006375965866033033	-0.2701928520964131	-0.2701928520964097	-0.0001115216526725193	9.599989965305313e-05	-0.02696640097735443	-0.02478627774406035	-0.4399924749071547	0.001899524566636723	-0.01821576842510329	-0.2509962398735727	0.1394839838986323	0.02965000581636886	0.35383423027629	-1.54193062810043	-12.57477355575938	1.565514488392515	7.362096495928046	-727.8905764127625	-45.29488676290239	-0.898952058591258	1.878105325311259	0.2792786230738667	1.682406253495192	-6.295980023468116	-0.3592288312066443	-1.710402166720798	-0.02981460869272876	-4.651255919206453	-4.651255919206336	-0.04335844160274922	0.01478924045923299	-0.5119282199637006	-0.4390857033111435	-2.066864236952631e-08	-4.491551257220069e-08	1.485298090691612e-07	1.601505832895872e-08	-3.523234337991856e-08	1.229557669370526e-07	-3.316999993495277e-08
1.07	-0.6540266504355188	-0.130203510281043	0.5983323253458686	1.946585626092734	-0.2962940646118388	0.1338254898787153	-0.4363200526927239	1.191966826627933	1.19196682662709	-0.1745028534644052	0.1745241721298497	0.09428382150944102	-0.02919323902234094	0.1175557738398338	0.01931284646275295	0.1145878772452677	-0.4206635512274541	-0.02406385144117092	-0.1180090924657997	-0.0007125670793066521	-0.3166604505505863	-0.3166604505505771	-0.0001275978825511096	0.0001003821388202656	-0.03209296835755909	-0.0289373064452298	-0.439354598723736	0.002176113477623408	-0.0182970323433351	-0.2507032138843089	0.1395672413108777	0.02990232845726418	0.3535554979699845	-1.484971068275805	-12.70639497418045	1.600279045527741	7.230638325025075	-727.53668954335	-45.41078331146042	-0.957122741061246	1.862178651122128	0.2832479090787528	1.672495071986509	-6.2642110698544	-0.3236339325549375	-1.731052082286684	0.007044000656399554	-4.644271362745165	-4.644271362744407	0.01990203318121757	-0.007507709553310465	-0.5154273163542474	-0.4004649560224773	-2.469557014477164e-08	-5.32775161479386e-08	1.702601055183274e-07	2.001372321254135e-08	-4.1626413214897e-08	1.400222016726457e-07	-3.803228733078824e-08
1.08	-0.6527575498489288	-0.12999608576872	0.5995617554403042	1.942065426664384	-0.2965511119104272	0.1325593476516057	-0.4363269895042293	1.188567924460292	1.18856792446054	-0.1745041046047559	0.1745250680764637	0.0939368579922443	-0.02950292653716686	0.1362727895732983	0.02218201252475602	0.1312862808739401	-0.4833674977715268	-0.02732714710892614	-0.1352112275864332	-0.000652246763385716	-0.3631184311736566	-0.3631184311736443	-0.0001183042379647569	7.394737003637183e-05	-0.03731578850998011	-0.03298247524650476	-0.4387167225403211	0.002452702388609565	-0.0183782962615646	-0.250410187895045	0.1396504987231233	0.03015465109815896	0.3532767656636748	-1.434226901779387	-12.83706965167011	1.63505441835842	7.117818121465076	-727.2655684531295	-45.49669442194376	-1.027006823349923	1.888218999298299	0.2912589249690984	1.668106006402029	-6.285405463504039	-0.3372224344146679	-1.700909530637488	-0.002756446967654647	-4.649332352985883	-4.649332352986296	-0.03828446670975193	0.008625838868996689	-0.5311787744069619	-0.4179137233322319	-2.78865347277331e-08	-6.212632098470038e-08	1.903212481422974e-07	2.107265206832315e-08	-4.651692912188095e-08	1.572107161974224e-07	-4.322465655133707e-08
